<?xml version="1.0" encoding="utf-8"?>
<!-- Generator: Adobe Illustrator 19.0.0, SVG Export Plug-In . SVG Version: 6.00 Build 0)  -->
<svg version="1.1" id="图层_1" xmlns="http://www.w3.org/2000/svg" xmlns:xlink="http://www.w3.org/1999/xlink" x="0px" y="0px"
	 viewBox="0 0 817.479 818.8" enable-background="new 0 0 817.479 818.8" xml:space="preserve" fill='#fb9b6d'>
<g id="图层_7">
</g>
<g id="图层_6">
</g>
<g id="图层_5">
</g>
<g id="图层_4">
</g>
<g id="图层_3">
</g>
<g id="图层_2">
	<g>
		<path fill-rule="evenodd" clip-rule="evenodd" d="M452.011,507.779h-82.858c-2.735,0-5.074,1.964-5.548,4.657l-26.328,149.687
			c-0.329,1.868,0.305,3.775,1.685,5.076l69.432,65.422c2.277,2.145,5.866,2.025,7.993-0.269l59.87-64.547
			c1.143-1.232,1.676-2.911,1.454-4.577l-20.116-150.562C457.221,509.868,454.834,507.779,452.011,507.779z M407.011,688.893
			l-37.549-36.317c-1.314-1.271-1.929-3.1-1.651-4.906l16.307-105.982c0.423-2.748,2.787-4.777,5.568-4.777h40.487
			c2.824,0,5.212,2.091,5.584,4.891l14.299,107.512c0.227,1.703-0.336,3.416-1.529,4.653l-33.543,34.787
			C412.821,690.995,409.25,691.058,407.011,688.893z"/>
		<path fill-rule="evenodd" clip-rule="evenodd" d="M407.406,0c-127.026,0-230,102.974-230,230s102.974,230,230,230
			s230-102.975,230-230S534.431,0,407.406,0z M407.406,424.16c-107.232,0-194.16-86.928-194.16-194.16s86.928-194.16,194.16-194.16
			s194.16,86.928,194.16,194.16S514.637,424.16,407.406,424.16z"/>
		<path fill="none" d="M408.739,460.493c-189.568,0-346.279,140.662-371.462,323.307h742.924
			C755.018,601.156,598.307,460.493,408.739,460.493z"/>
		<path d="M815.509,783.8c-25.417-202.033-197.842-358.307-406.769-358.307S27.387,581.767,1.97,783.8
			c-0.78,6.203-1.422,12.45-1.921,18.736C-0.648,811.294,6.24,818.8,15.026,818.8h19.085h749.255h19.085
			c8.786,0,15.674-7.506,14.978-16.264C816.93,796.25,816.289,790.003,815.509,783.8z M54.942,783.8
			c-9.393,0-16.509-8.528-14.78-17.761c32.571-173.923,185.201-305.546,368.577-305.546s336.006,131.623,368.577,305.546
			c1.729,9.232-5.387,17.761-14.78,17.761H54.942z"/>
	</g>
</g>
</svg>
