<?xml version="1.0" encoding="utf-8"?>
<!-- Generator: Adobe Illustrator 19.0.0, SVG Export Plug-In . SVG Version: 6.00 Build 0)  -->
<svg version="1.1" id="图层_1" xmlns="http://www.w3.org/2000/svg" xmlns:xlink="http://www.w3.org/1999/xlink" x="0px" y="0px"
	 viewBox="0 0 840.18 808.138" enable-background="new 0 0 840.18 808.138" xml:space="preserve" fill='#fb9b6d'>
<g id="图层_3">
</g>
<g id="图层_2">
	<g>
		<path fill-rule="evenodd" clip-rule="evenodd" d="M416.501,145.603h-265c-9.625,0-17.5-7.875-17.5-17.5v0
			c0-9.625,7.875-17.5,17.5-17.5h265c9.625,0,17.5,7.875,17.5,17.5v0C434,137.728,426.125,145.603,416.501,145.603z"/>
		<path fill-rule="evenodd" clip-rule="evenodd" d="M682.5,306.095h-531c-9.625,0-17.5-7.875-17.5-17.5v0
			c0-9.625,7.875-17.5,17.5-17.5h531c9.625,0,17.5,7.875,17.5,17.5v0C700,298.22,692.125,306.095,682.5,306.095z"/>
		<path fill-rule="evenodd" clip-rule="evenodd" d="M384.501,439.069h-233c-9.625,0-17.5-7.875-17.5-17.5v0
			c0-9.625,7.875-17.5,17.5-17.5h233c9.625,0,17.5,7.875,17.5,17.5v0C402,431.194,394.125,439.069,384.501,439.069z"/>
		<path fill-rule="evenodd" clip-rule="evenodd" d="M384.501,573.365h-233c-9.625,0-17.5-7.875-17.5-17.5l0,0
			c0-9.625,7.875-17.5,17.5-17.5h233c9.625,0,17.5,7.875,17.5,17.5l0,0C402,565.49,394.125,573.365,384.501,573.365z"/>
		<path fill-rule="evenodd" clip-rule="evenodd" d="M682.5,145.603h-531c-9.625,0-17.5-7.875-17.5-17.5v0
			c0-9.625,7.875-17.5,17.5-17.5h531c9.625,0,17.5,7.875,17.5,17.5v0C700,137.728,692.125,145.603,682.5,145.603z"/>
		<path fill-rule="evenodd" clip-rule="evenodd" d="M810.327,803.033L658.299,651.005c-6.806-6.806-6.806-17.943,0-24.749l0,0
			c6.806-6.806,17.943-6.806,24.749,0l152.028,152.028c6.806,6.806,6.806,17.943,0,24.749l0,0
			C828.27,809.839,817.133,809.839,810.327,803.033z"/>
		<path fill-rule="evenodd" clip-rule="evenodd" d="M584,388.365c-82.843,0-150,67.157-150,150s67.157,150,150,150
			s150-67.157,150-150S666.843,388.365,584,388.365z M584,652.725c-63.159,0-114.36-51.201-114.36-114.36
			s51.201-114.36,114.36-114.36c63.159,0,114.36,51.201,114.36,114.36S647.16,652.725,584,652.725z"/>
		<path fill-rule="evenodd" clip-rule="evenodd" d="M824,49c0-27.062-21.938-49-49-49H49C21.938,0,0,21.938,0,49v710.138
			c0,27.062,21.938,49,49,49h475v-0.059c9.199-0.609,16.477-8.243,16.477-17.596c0-9.353-7.278-16.987-16.477-17.596v-0.056h-1.111
			c-0.022,0-0.044-0.003-0.067-0.003s-0.044,0.003-0.067,0.003H55c-10.493,0-19-8.507-19-19V54.307c0-10.493,8.507-19,19-19H769
			c10.493,0,19,8.507,19,19v453.831h0.03c-0.007,0.2-0.03,0.396-0.03,0.598c0,9.941,8.059,18,18,18c9.941,0,18-8.059,18-18
			c0-0.202-0.024-0.398-0.03-0.598H824V49z"/>
	</g>
</g>
</svg>
