<?xml version="1.0" encoding="utf-8"?>
<!-- Generator: Adobe Illustrator 19.0.0, SVG Export Plug-In . SVG Version: 6.00 Build 0)  -->
<svg version="1.1" id="图层_1" xmlns="http://www.w3.org/2000/svg" xmlns:xlink="http://www.w3.org/1999/xlink" x="0px" y="0px"
	 viewBox="0 0 745.201 841.89" enable-background="new 0 0 745.201 841.89" xml:space="preserve" fill='#fb9b6d'>
<g id="XMLID_25_">
	<path id="XMLID_12_" fill-rule="evenodd" clip-rule="evenodd" fill="#fb9b6d" d="M572.115,453.915
		c-95.592,0-173.085,77.493-173.085,173.086s77.493,173.086,173.085,173.086c95.593,0,173.086-77.493,173.086-173.086
		S667.708,453.915,572.115,453.915z M572.115,765.469c-76.474,0-138.468-61.994-138.468-138.468
		c0-76.474,61.995-138.468,138.468-138.468c76.474,0,138.468,61.994,138.468,138.468
		C710.584,703.475,648.589,765.469,572.115,765.469z"/>
	<path id="XMLID_3_" fill-rule="evenodd" clip-rule="evenodd" fill="#fb9b6d" d="M684.259,600.7
		c-2.615-7.793-7.843-10.391-15.684-12.989l-49.664-7.793l-23.526-44.161c-5.228-12.989-26.138-12.989-33.98,0l-23.526,44.161
		l-49.664,7.793c-7.842,0-13.07,5.195-15.683,12.989c-2.614,7.791,0,12.987,5.228,18.182l36.594,33.772l-5.229,51.953
		c0,7.794,2.615,12.989,7.844,18.185c5.226,5.195,13.068,5.195,20.91,2.595l44.435-23.379l44.438,23.379
		c2.614,2.6,5.226,2.6,7.843,2.6c5.226,0,7.84-2.6,10.455-2.6c5.226-5.193,7.842-10.389,7.842-18.183l-7.842-49.355l36.594-33.77
		C684.259,616.283,684.259,608.49,684.259,600.7z M620.028,639.157c-7.33,7.286-7.33,14.574-7.33,21.86l3.666,32.791l-25.662-18.218
		c-3.668-3.644-7.334-3.644-10.999-3.644c-3.666,0-7.332,0-10.998,3.644l-29.33,14.574l3.667-29.148c0-7.286,0-18.218-7.332-21.86
		l-21.997-21.859l32.995-3.646c7.334,0,14.664-7.286,18.332-14.574l14.662-29.144l14.664,29.144
		c3.668,7.286,10.998,10.93,18.331,14.574l32.995,3.646L620.028,639.157z"/>
</g>
<path id="XMLID_9_" fill-rule="evenodd" clip-rule="evenodd" fill="#fb9b6d" d="M599.186,133.633c0-35.346-28.654-64-64-64H64
	c-35.346,0-64,28.654-64,64v602.454c0,35.346,28.654,64,64,64h335.03c9.665,0,17.5-7.835,17.5-17.5s-7.835-17.5-17.5-17.5H69
	c-18.778,0-34-15.222-34-34V138.633c0-18.778,15.222-34,34-34h461.186c18.778,0,34,15.222,34,34v233.249h0.034
	c-0.009,0.225-0.034,0.445-0.034,0.672c0,9.665,7.835,17.5,17.5,17.5s17.5-7.835,17.5-17.5c0-0.227-0.025-0.447-0.034-0.672h0.034
	V133.633z"/>
<path id="XMLID_31_" fill-rule="evenodd" clip-rule="evenodd" fill="#fb9b6d" d="M296.793,552.435h-170
	c-9.665,0-17.5,7.835-17.5,17.5c0,9.665,7.835,17.5,17.5,17.5h170c9.665,0,17.5-7.835,17.5-17.5
	C314.293,560.27,306.458,552.435,296.793,552.435z"/>
<path id="XMLID_35_" fill-rule="evenodd" clip-rule="evenodd" fill="#fb9b6d" d="M472.393,415.583v-0.05h-345.6v0.05c0,0,0,0,0,0
	c-9.665,0-17.5,7.835-17.5,17.5s7.835,17.5,17.5,17.5c0,0,0,0,0,0v0.05h345.6v-0.05c9.665,0,17.5-7.835,17.5-17.5
	S482.058,415.583,472.393,415.583z"/>
<path id="XMLID_38_" fill-rule="evenodd" clip-rule="evenodd" fill="#fb9b6d" d="M472.393,284.258v-0.05h-345.6v0.05c0,0,0,0,0,0
	c-9.665,0-17.5,7.835-17.5,17.5s7.835,17.5,17.5,17.5c0,0,0,0,0,0v0.05h345.6v-0.05c9.665,0,17.5-7.835,17.5-17.5
	S482.058,284.258,472.393,284.258z"/>
</svg>
