<?xml version="1.0" encoding="utf-8"?>
<!-- Generator: Adobe Illustrator 19.0.0, SVG Export Plug-In . SVG Version: 6.00 Build 0)  -->
<svg version="1.1" id="图层_1" xmlns="http://www.w3.org/2000/svg" xmlns:xlink="http://www.w3.org/1999/xlink" x="0px" y="0px"
	 viewBox="0 0 731.877 731.043" enable-background="new 0 0 731.877 731.043" xml:space="preserve" fill='#28aa8e'>
<g id="图层_4">
	<path fill-rule="evenodd" clip-rule="evenodd" d="M684.717,699.906"/>
</g>
<g id="图层_3">
</g>
<g id="图层_2">
	<path d="M644.83,550.016C599.879,446.908,500.136,373.188,382.377,365.65v-20.008v-8.154l0.02-75.949
		c0-0.584-0.02-1.287-0.02-1.968v-8.655l5.074-0.844c60.231-10.606,103.92-62.761,103.92-124.063
		C491.371,56.534,435.033,0,365.752,0c-69.28,0-125.619,56.631-125.619,126.106c0,60.912,43.3,112.969,103.045,123.867l4.199,0.702
		v8.808c0,0.771,0,1.288,0,2.067v76.291v7.979v19.554c-120.293,5.784-222.475,80.581-267.832,185.663
		C34.779,556.312,0,594.434,0,640.745c0,38.785,24.539,71.974,58.924,84.74c9.743,3.617,20.274,5.597,31.264,5.597
		c1.842,0,3.67-0.062,5.485-0.172c47.224-2.85,84.704-42.232,84.704-90.165c0-40.588-26.972-75.046-63.836-86.385
		c42.077-87.065,129.034-148.383,230.836-153.91V545.07v7.497l-3.81,0.994c-39.992,10.022-68.015,45.927-68.015,87.379
		c0,49.625,40.284,90.006,89.811,90.006c49.528,0,89.811-40.381,89.811-90.006c0-41.354-28.023-77.259-68.015-87.379l-4.782-1.244
		V545.3V400.764c100.249,7.249,185.481,68.649,226.61,155.09c-34.139,13.015-58.424,46.093-58.424,84.891
		c0,45.943,34.38,84.072,78.623,90.001c3.939,0.528,7.956,0.805,12.034,0.805c8.379,0,16.492-1.145,24.196-3.277
		c38.302-10.602,66.462-45.751,66.462-87.53C731.877,591.921,693.192,551.923,644.83,550.016z M274.93,126.106
		C274.93,75.802,315.732,35,365.85,35c50.117,0,90.919,40.802,90.919,91.106c0,50.21-40.709,91.106-90.919,91.106
		C315.732,217.212,274.93,176.316,274.93,126.106z M145.396,640.745c0,30.375-24.589,55.139-54.928,55.291
		c-0.094,0-0.186,0.007-0.279,0.007c-13.547,0-25.953-4.917-35.564-13.046c-12.005-10.155-19.643-25.33-19.643-42.251
		c0-21.619,12.389-40.312,30.421-49.407c7.457-3.761,15.872-5.891,24.786-5.891c4.517,0,8.908,0.561,13.116,1.596
		C127.397,592.968,145.396,614.807,145.396,640.745z M420.472,640.745c0,30.469-24.738,55.298-55.206,55.298
		c-30.469,0-55.207-24.829-55.207-55.298c0-30.559,24.739-55.298,55.207-55.298C395.735,585.447,420.472,610.276,420.472,640.745z
		 M670.01,687.93c-8.385,5.144-18.243,8.112-28.791,8.112c-2.312,0-4.587-0.161-6.826-0.44c-27.182-3.389-48.38-26.708-48.38-54.858
		c0-23.821,15.033-44.102,36.093-51.89c5.957-2.203,12.395-3.409,19.113-3.409c6.065,0,11.896,0.998,17.357,2.814
		c21.973,7.308,37.85,28.08,37.85,52.484C696.426,660.726,685.848,678.214,670.01,687.93z"/>
</g>
</svg>
