<?xml version="1.0" encoding="utf-8"?>
<!-- Generator: Adobe Illustrator 19.0.0, SVG Export Plug-In . SVG Version: 6.00 Build 0)  -->
<svg version="1.1" id="图层_1" xmlns="http://www.w3.org/2000/svg" xmlns:xlink="http://www.w3.org/1999/xlink" x="0px" y="0px"
	 viewBox="0 0 1200 980" enable-background="new 0 0 1200 980" xml:space="preserve" fill='#28aa8e'>
<g id="图层_8">
	<path fill-rule="evenodd" clip-rule="evenodd" d="M774.388,533.866c-1.913-10.107-8.02-16.583-15.432-16.42h-1.565
		c-25.516,0-46.294-20.626-46.294-45.968c0-8.346,3.999-17.508,4.021-17.573c3.956-8.813,0.913-19.626-7.042-25.147l-0.435-0.304
		l-44.533-24.559l-0.457-0.195c-2.652-1.141-5.542-1.717-8.606-1.717c-6.347,0-12.562,2.51-16.627,6.705
		c-5.455,5.575-22.582,20.028-36.405,20.028c-13.975,0-31.211-14.747-36.666-20.419c-4.086-4.282-10.367-6.836-16.757-6.836
		c-3.021,0-5.847,0.554-8.455,1.652l-0.478,0.207l-46.098,25.136l-0.457,0.315c-7.976,5.51-11.019,16.312-7.085,25.114
		c0.043,0.087,4.042,9.248,4.042,17.594c0,25.342-20.778,45.968-46.316,45.968h-1.543c-7.433-0.174-13.519,6.313-15.453,16.42
		c-0.152,0.804-3.716,19.735-3.716,34.666c0,14.91,3.565,33.84,3.716,34.645c1.913,9.976,7.868,16.431,15.17,16.431h1.826
		c25.538,0,46.316,20.604,46.316,45.946c0,8.346-3.999,17.518-4.043,17.583c-3.934,8.803-0.913,19.626,7.042,25.146l0.434,0.305
		l43.687,24.255l0.456,0.174c2.63,1.174,5.521,1.739,8.563,1.739c6.412,0,12.672-2.608,16.736-6.999
		c5.107-5.52,22.93-21.299,37.209-21.299c14.366,0,31.928,15.692,37.47,21.734c4.064,4.434,10.367,7.107,16.844,7.107
		c2.978,0,5.825-0.565,8.412-1.673l0.478-0.195l45.272-24.842l0.435-0.305c7.977-5.52,11.019-16.344,7.085-25.124
		c-0.044-0.087-4.043-9.259-4.043-17.605c0-25.342,20.778-45.946,46.294-45.946h1.543c7.433,0.13,13.54-6.325,15.453-16.431
		c0.153-0.805,3.739-19.735,3.739-34.645C778.127,553.6,774.541,534.67,774.388,533.866z M735.22,595.175
		c-31.169,1.604-56.016,27.273-56.016,58.594c0,10.484,4.106,20.512,5.004,22.593l-37.166,20.397h-0.057
		c-0.535,0-1.031-0.191-1.223-0.325c-0.668-0.726-6.035-6.456-13.789-12.166c-11.573-8.518-22.574-12.853-32.716-12.853
		c-10.045,0-20.97,4.24-32.467,12.605c-7.716,5.615-13.063,11.249-13.732,11.956c-0.172,0.114-0.668,0.305-1.203,0.305h-0.076
		l-35.847-19.901c0.878-2.024,5.022-12.108,5.022-22.612c0-31.322-24.866-56.99-56.016-58.594
		c-0.458-2.483-2.884-16.31-2.884-26.662c0-10.39,2.426-24.217,2.884-26.68c31.15-1.604,56.016-27.273,56.016-58.604
		c0-10.456-4.087-20.483-5.003-22.574L553.823,440h0.134c0.63,0,1.222,0.229,1.413,0.363c0.611,0.64,5.94,6.073,13.598,11.497
		c11.345,8.022,22.078,12.089,31.933,12.089c9.74,0,20.397-3.992,31.665-11.86c7.621-5.31,12.911-10.648,13.522-11.278
		c0.211-0.124,0.783-0.353,1.414-0.353h0.153l36.554,20.177c-0.878,2.053-5.003,12.109-5.003,22.594
		c0,31.331,24.847,56.999,56.016,58.603c0.439,2.473,2.884,16.291,2.884,26.68C738.104,578.884,735.66,592.711,735.22,595.175z"/>
	<path fill-rule="evenodd" clip-rule="evenodd" d="M607.29,508.641c-32.802,0-59.393,26.591-59.393,59.393
		c0,32.802,26.591,59.393,59.393,59.393c32.802,0,59.393-26.591,59.393-59.393C666.683,535.232,640.092,508.641,607.29,508.641z
		 M607.29,592.417c-13.466,0-24.383-10.917-24.383-24.383s10.917-24.383,24.383-24.383s24.383,10.917,24.383,24.383
		S620.756,592.417,607.29,592.417z"/>
</g>
<g id="图层_7">
</g>
<g id="图层_6">
</g>
<g id="图层_5">
</g>
<g id="图层_4">
	<path fill-rule="evenodd" clip-rule="evenodd" d="M738.087,129.097c-4.205-4.526-10.104-7.097-16.282-7.097h-41.512H366.266
		c-37.546,0-68.266,30.72-65.705,68.267v600.747c-2.561,37.546,28.159,61.44,65.705,61.44h467.627
		c36.288,0,65.705-29.417,65.705-65.705V337.04v-28.188c0-3.821-1.446-7.501-4.047-10.3L738.087,129.097z M704.403,157h10.727
		c1.72,0,3.359,0.731,4.508,2.011l137.137,152.72c1.373,1.529,0.288,3.963-1.768,3.963H706.834c-2.868,0-5.194-2.325-5.194-5.194
		V159.763C701.64,158.237,702.877,157,704.403,157z M864.598,783.757c0,16.849-16.848,33.697-37.066,33.697H369.258
		c-16.848,0-33.696-13.479-33.696-33.697v-593.06c0-16.849,13.478-33.697,33.696-33.697h293.303c1.783,0,3.228,1.445,3.228,3.228
		v161.886c0,16.848,13.478,33.696,33.696,33.696h165.113V783.757z"/>
</g>
<g id="图层_3">
</g>
<g id="图层_2">
</g>
</svg>
