<?xml version="1.0" encoding="utf-8"?>
<!-- Generator: Adobe Illustrator 19.0.0, SVG Export Plug-In . SVG Version: 6.00 Build 0)  -->
<svg version="1.1" id="图层_1" xmlns="http://www.w3.org/2000/svg" xmlns:xlink="http://www.w3.org/1999/xlink" x="0px" y="0px"
	 viewBox="0 0 824 808.138" enable-background="new 0 0 824 808.138" xml:space="preserve" fill='#28aa8e'>
<g>
	<path fill-rule="evenodd" clip-rule="evenodd" d="M803.305,79.334l-56.913-58.638c-27.594-27.594-73.297-27.594-101.753,0
		L267.806,398.391c-1.725,1.724-3.449,2.587-4.312,5.173c-3.165,4.603-3.165,4.603-6.036,8.624L132.422,663.122
		c-4.311,8.623-1.724,17.246,4.312,23.282c6.036,6.036,15.522,8.623,23.282,4.312l253.521-123.312
		c1.725-0.862,3.827-2.232,5.174-4.311c0.743-1.119,0.862-1.725,1.725-3.449c1.724-0.863,3.449-3.45,5.174-4.312l377.694-374.245
		C830.898,153.492,830.898,106.928,803.305,79.334z M205.653,636.896c-17.736,10.24-26.083,0-17.736-17.409
		c7.303-18.432,79.291-162.82,79.291-162.82l103.287,101.379C370.496,558.046,223.389,627.679,205.653,636.896z M397.779,535.882
		L288.951,427.054l312.532-311.601l109.759,109.758L397.779,535.882z M785.012,150.931l-54.228,54.735L622.329,94.309l54.227-54.734
		c12.868-13.211,34.008-13.211,45.956,0l62.5,64.171C797.879,116.959,797.879,138.663,785.012,150.931z"/>
	<path fill-rule="evenodd" clip-rule="evenodd" d="M823.992,400c-0.083-9.87-8.102-17.848-17.992-17.848S788.09,390.13,788.008,400
		H788v0.142c0,0.003,0,0.006,0,0.01s0,0.006,0,0.01v353.669c0,10.493-8.507,19-19,19H55c-10.493,0-19-8.507-19-19V54.307
		c0-10.493,8.507-19,19-19h368.756c0.022,0,0.044,0.003,0.067,0.003s0.044-0.003,0.067-0.003H424v-0.006
		c9.668-0.097,17.477-7.956,17.477-17.646c0-9.69-7.809-17.549-17.477-17.646V0H49C21.938,0,0,21.938,0,49v710.138
		c0,27.062,21.938,49,49,49h726c27.062,0,49-21.938,49-49V400H823.992z"/>
</g>
</svg>
