<?xml version="1.0" encoding="utf-8"?>
<!-- Generator: Adobe Illustrator 19.0.0, SVG Export Plug-In . SVG Version: 6.00 Build 0)  -->
<svg version="1.1" id="图层_1" xmlns="http://www.w3.org/2000/svg" xmlns:xlink="http://www.w3.org/1999/xlink" x="0px" y="0px"
	 viewBox="0 0 688.433 841.89" enable-background="new 0 0 688.433 841.89" xml:space="preserve" fill='#28aa8e'>
<g>
	<path fill-rule="evenodd" clip-rule="evenodd" d="M506.966,103.994H181.468c-27.614,0-50,22.386-50,50v327.704h425.498V153.994
		C556.966,126.379,534.58,103.994,506.966,103.994z M521.953,446.698H166.455V158.994c0-11.046,8.954-20,20-20h315.498
		c11.046,0,20,8.954,20,20V446.698z"/>
	<path fill="none" d="M157.598,551.425h373.21c27.614,0,50,22.386,50,50v20.643h52.625c11.046,0,20-8.954,20-20V501.698
		c0-11.046-8.954-20-20-20H55c-11.046,0-20,8.954-20,20v100.371c0,11.046,8.954,20,20,20h52.598v-20.643
		C107.598,573.811,129.984,551.425,157.598,551.425z"/>
	<path fill="none" d="M142.598,682.777c0,11.046,8.954,20,20,20h363.21c11.046,0,20-8.954,20-20v-25.708h-403.21V682.777z"/>
	<path fill="none" d="M525.809,586.545h-363.21c-11.046,0-20,8.954-20,20v15.524h403.21v-15.524
		C545.809,595.499,536.854,586.545,525.809,586.545z"/>
	<path d="M638.433,446.698H50c-27.614,0-50,22.386-50,50v110.371c0,27.614,22.386,50,50,50h57.598v-35H55c-11.046,0-20-8.954-20-20
		V501.698c0-11.046,8.954-20,20-20h578.433c11.046,0,20,8.954,20,20v100.371c0,11.046-8.954,20-20,20h-52.625v35h57.625
		c27.614,0,50-22.386,50-50V496.698C688.433,469.083,666.048,446.698,638.433,446.698z"/>
	<path d="M530.809,551.425h-373.21c-27.614,0-50,22.386-50,50v20.643v35v30.828c0,27.614,22.386,50,50,50h373.21
		c27.614,0,50-22.386,50-50v-30.828v-35v-20.643C580.809,573.811,558.423,551.425,530.809,551.425z M545.809,657.068v25.708
		c0,11.046-8.954,20-20,20h-363.21c-11.046,0-20-8.954-20-20v-25.708v-35v-15.524c0-11.046,8.954-20,20-20h363.21
		c11.046,0,20,8.954,20,20v15.524V657.068z"/>
</g>
</svg>
