<?xml version="1.0" encoding="utf-8"?>
<!-- Generator: Adobe Illustrator 19.0.0, SVG Export Plug-In . SVG Version: 6.00 Build 0)  -->
<svg version="1.1" id="图层_1" xmlns="http://www.w3.org/2000/svg" xmlns:xlink="http://www.w3.org/1999/xlink" x="0px" y="0px"
	 viewBox="0 0 796.533 790.071" enable-background="new 0 0 796.533 790.071" xml:space="preserve" fill="#28aa8e">
<path fill-rule="evenodd" clip-rule="evenodd" fill="#28aa8e" d="M398.267,0C178.301,0,0,156.029,0,348.483
	C0,456.266,56.079,552.486,143.93,616.44c3.411,2.483,5.42,6.454,5.42,10.673v154.604c0,6.502,7.109,10.504,12.667,7.131
	l154.187-93.541c4.876-2.958,10.629-4.105,16.272-3.279c21.407,3.131,43.338,4.938,65.79,4.938
	c219.966,0,398.267-155.998,398.267-348.483C796.533,156.029,618.232,0,398.267,0z M398.236,668.96
	c-27.076,0-53.313-2.797-78.665-7.689c-6-1.158-12.214-0.069-17.432,3.11l-105.116,64.042c-5.558,3.386-12.681-0.614-12.681-7.123
	l0-111.429c0-4.542-2.332-8.764-6.175-11.185C87.989,541.893,34.141,450.533,34.141,347.108C34.141,174.728,197.205,35,398.267,35
	c201.126,0,364.126,139.761,364.095,312.108C762.362,519.488,599.361,668.96,398.236,668.96z"/>
<path fill-rule="evenodd" clip-rule="evenodd" fill="#28aa8e" d="M597.4,383.483c-19.32,0-35-15.658-35-35c0-19.342,15.68-35,35-35
	c19.32,0,35,15.68,35,35C632.4,367.803,616.72,383.483,597.4,383.483L597.4,383.483z"/>
<path fill-rule="evenodd" clip-rule="evenodd" fill="#28aa8e" d="M398.267,383.483c-19.299,0-35-15.658-35-35
	c0-19.342,15.701-35,35-35c19.32,0,35,15.68,35,35C433.267,367.803,417.586,383.483,398.267,383.483L398.267,383.483z"/>
<path fill-rule="evenodd" clip-rule="evenodd" fill="#28aa8e" d="M199.133,383.483c-19.299,0-35-15.658-35-35
	c0-19.342,15.701-35,35-35c19.32,0,35,15.68,35,35C234.133,367.803,218.453,383.483,199.133,383.483L199.133,383.483z"/>
<rect x="392.833" fill-rule="evenodd" clip-rule="evenodd" fill="#28aa8e" width="20" height="35"/>
<rect x="149.342" y="665.167" fill-rule="evenodd" clip-rule="evenodd" fill="#28aa8e" width="35" height="12"/>
<path fill="none" d="M304,661.667"/>
</svg>
