<?xml version="1.0" encoding="utf-8"?>
<!-- Generator: Adobe Illustrator 19.0.0, SVG Export Plug-In . SVG Version: 6.00 Build 0)  -->
<svg version="1.1" id="图层_1" xmlns="http://www.w3.org/2000/svg" xmlns:xlink="http://www.w3.org/1999/xlink" x="0px" y="0px"
	 viewBox="0 0 575.919 722.151" enable-background="new 0 0 575.919 722.151" xml:space="preserve" fill='#28aa8e'>
<g id="图层_4">
	<path fill-rule="evenodd" clip-rule="evenodd" d="M427.62,85.015H64.09C28.75,85.015,0,116.35,0,154.867v497.432
		c0,38.517,28.75,69.852,64.09,69.852h363.53c35.34,0,64.09-31.335,64.09-69.852V154.867C491.71,116.35,462.96,85.015,427.62,85.015
		z M457.284,650.337c0,20.3-13.95,36.814-31.098,36.814H65.523c-17.148,0-31.098-16.514-31.098-36.814V156.829
		c0-20.3,13.95-36.813,31.098-36.813h360.663c17.148,0,31.098,16.514,31.098,36.813V650.337z"/>
</g>
<g id="图层_3">
	<path fill-rule="evenodd" clip-rule="evenodd" d="M313.396,494.769c-15.713,0-30.281,4.996-42.199,13.483l-60.403-60.403
		c8.342-11.855,13.248-26.296,13.248-41.861c0-15.177-4.663-29.284-12.628-40.968l61.013-61.015
		c11.684,7.965,25.791,12.628,40.968,12.628c40.206,0,72.916-32.709,72.916-72.915s-32.71-72.916-72.916-72.916
		c-40.205,0-72.915,32.71-72.915,72.916c0,12.985,3.415,25.185,9.39,35.757l-62.987,62.987c-10.572-5.975-22.772-9.39-35.757-9.39
		c-40.207,0-72.916,32.71-72.916,72.916c0,40.206,32.709,72.916,72.916,72.916c12.589,0,24.443-3.208,34.788-8.847l63.214,63.214
		c-5.514,10.256-8.647,21.975-8.647,34.414c0,40.206,32.709,72.916,72.915,72.916s72.916-32.71,72.916-72.916
		S353.602,494.769,313.396,494.769z M313.395,205.802c20.907,0,37.916,17.009,37.916,37.916s-17.01,37.916-37.916,37.916
		s-37.915-17.009-37.915-37.916C275.479,222.811,292.488,205.802,313.395,205.802z M151.125,443.887
		c-20.898,0-37.899-17.001-37.899-37.899c0-20.898,17.001-37.899,37.899-37.899c20.897,0,37.899,17.002,37.899,37.899
		C189.024,426.885,172.022,443.887,151.125,443.887z M313.395,605.606c-20.908,0-37.918-17.011-37.918-37.919
		c0-20.909,17.009-37.919,37.918-37.919c20.909,0,37.919,17.01,37.919,37.919C351.314,588.594,334.303,605.606,313.395,605.606z"/>
</g>
<g id="图层_2">
	<path fill-rule="evenodd" clip-rule="evenodd" d="M575.919,69.852c0-38.517-28.75-69.852-64.09-69.852H111.546v0.028
		C102.14,0.323,94.6,8.022,94.6,17.5s7.54,17.177,16.946,17.472v0.061c0.368-0.015,0.736-0.033,1.107-0.033h397.743
		c17.148,0,31.098,16.514,31.098,36.813V681.82c0,0.795-0.029,1.582-0.071,2.365h0.067c0,9.508,7.707,17.215,17.215,17.215
		c9.508,0,17.215-7.707,17.215-17.215c0-0.043-0.006-0.084-0.006-0.127c0.003-0.092,0.006-0.183,0.006-0.276V69.852z"/>
</g>
</svg>
