<?xml version="1.0" encoding="utf-8"?>
<!-- Generator: Adobe Illustrator 19.0.0, SVG Export Plug-In . SVG Version: 6.00 Build 0)  -->
<svg version="1.1" id="图层_1" xmlns="http://www.w3.org/2000/svg" xmlns:xlink="http://www.w3.org/1999/xlink" x="0px" y="0px"
	 viewBox="0 0 506.594 506.594" enable-background="new 0 0 506.594 506.594" xml:space="preserve">
<g id="图层_4">
	<path fill-rule="evenodd" clip-rule="evenodd" d="M253.226,0c-71.607,0-136.16,29.783-182.189,77.592V35.554
		c0-9.833-7.98-17.742-17.741-17.742s-17.741,7.98-17.741,17.742v106.663h106.663c9.833,0,17.741-7.98,17.741-17.742
		s-7.98-17.742-17.741-17.742H92.412c39.829-43.677,97.115-71.108,160.885-71.108c120.272,0,217.743,97.471,217.743,217.743
		S373.497,471.04,253.226,471.04c-115.783,0-210.119-90.417-217.102-204.419h-0.641c0-9.833-7.98-17.741-17.741-17.741
		C7.98,248.879,0,256.859,0,266.621c0,2.138,0.356,4.204,1.069,6.056c9.975,130.817,118.918,233.917,252.228,233.917
		c139.866,0,253.297-113.431,253.297-253.297S393.091,0,253.226,0L253.226,0z"/>
</g>
<g id="图层_3">
	<path fill-rule="evenodd" clip-rule="evenodd" d="M254.908,271.81L254.908,271.81c-9.784,0-17.79-8.005-17.79-17.79V119.599
		c0-9.784,8.005-17.79,17.79-17.79h0c9.784,0,17.79,8.005,17.79,17.79V254.02C272.697,263.805,264.692,271.81,254.908,271.81z"/>
</g>
<g id="图层_2">
	<path fill-rule="evenodd" clip-rule="evenodd" d="M238.955,246.602L238.955,246.602c4.342-8.768,15.068-12.39,23.836-8.048
		l147.345,72.963c8.768,4.342,12.39,15.068,8.048,23.836v0c-4.342,8.768-15.068,12.39-23.836,8.048l-147.345-72.963
		C238.235,266.096,234.613,255.37,238.955,246.602z"/>
</g>
</svg>
