<?xml version="1.0" encoding="utf-8"?>
<!-- Generator: Adobe Illustrator 19.0.0, SVG Export Plug-In . SVG Version: 6.00 Build 0)  -->
<svg version="1.1" id="图层_1" xmlns="http://www.w3.org/2000/svg" xmlns:xlink="http://www.w3.org/1999/xlink" x="0px" y="0px"
	 viewBox="0 0 716.801 674.935" enable-background="new 0 0 716.801 674.935" xml:space="preserve">
<g id="图层_2">
	<g>
		<path fill-rule="evenodd" clip-rule="evenodd" d="M396.394,6.004c-23.082-10.492-49.545-7.064-69.04,8.954L144.486,185.034H56.913
			C25.487,185.034,0,210.52,0,241.997v191.569c0,31.425,25.486,56.861,56.913,56.861h87.521l183.43,170.072l0.203,0.207
			c11.826,9.419,26.257,14.229,40.896,14.229c8.7,0,17.607-1.742,25.896-5.322c22.417-9.625,37.006-29.688,39.204-53.742
			c0.258-2.096,0.359-4.35,0.359-6.502V65.114v-2.148C433.603,38.195,419.018,16.34,396.394,6.004L396.394,6.004 M399.209,600.108
			c0,1.23-0.101,2.557-0.203,3.94c-1.128,12.847-9.008,23.647-21.034,28.763c-12.285,5.274-25.795,3.431-36.186-4.761
			L161.423,460.843c-2.252-1.944-5.012-2.966-7.829-3.22c-0.921-0.106-1.945-0.207-2.97-0.207l-88.285,0.101
			c-14.998,0-27.125-12.179-27.125-27.177V245.222c0-15.049,12.128-27.177,27.125-27.177h87.67c0.207,0,0.462-0.052,0.719-0.052
			c3.53,0.305,7.115-0.718,10.031-3.123L341.273,47.455c10.696-8.8,24.773-10.643,37.514-4.81
			c12.437,5.58,20.012,17.044,20.371,30.453c0.05,0.41,0.05,0.819,0.05,1.23v525.78H399.209 M399.209,600.108"/>
		<path fill-rule="evenodd" clip-rule="evenodd" d="M677.845,174.444c-22.148-43.885-54.012-83.871-92.142-115.63
			c-2.839-2.378-6.443-3.687-10.144-3.687c-4.94,0-9.647,2.333-12.591,6.239l-0.301,0.452v0.003
			c-4.889,6.758-3.734,16.089,2.74,21.456c76.028,63.054,119.631,155.888,119.631,254.7c0,98.254-43.195,190.717-118.518,253.689
			c-6.513,5.546-7.53,15.173-2.324,21.906c2.999,3.963,7.604,6.236,12.633,6.236c3.701,0,7.288-1.293,10.102-3.643
			c37.797-31.735,69.377-71.63,91.326-115.372c25.576-50.896,38.544-105.659,38.544-162.765
			C716.8,280.358,703.693,225.32,677.845,174.444L677.845,174.444z"/>
		<path fill-rule="evenodd" clip-rule="evenodd" d="M559.477,250.058c-13.116-27.216-32.534-51.567-56.164-70.431
			c-2.834-2.219-6.231-3.393-9.822-3.393c-5.291,0-10.233,2.598-13.225,6.962c-4.66,6.931-3.275,16.108,3.226,21.352
			c40.884,32.651,64.333,81.341,64.333,133.586c0,51.431-22.895,99.678-62.816,132.374c-6.394,5.262-7.685,14.438-2.986,21.37
			c3.015,4.272,7.918,6.821,13.112,6.821c0,0,0,0,0.001,0c3.689,0,7.295-1.301,10.147-3.661
			c47.221-38.69,74.303-95.859,74.303-156.85C579.586,307.832,572.633,277.356,559.477,250.058L559.477,250.058z"/>
	</g>
</g>
</svg>
