<?xml version="1.0" encoding="utf-8"?>
<!-- Generator: Adobe Illustrator 19.0.0, SVG Export Plug-In . SVG Version: 6.00 Build 0)  -->
<svg version="1.1" id="图层_1" xmlns="http://www.w3.org/2000/svg" xmlns:xlink="http://www.w3.org/1999/xlink" x="0px" y="0px"
	 viewBox="0 0 560.591 420.09" enable-background="new 0 0 560.591 420.09" xml:space="preserve">
<g id="图层_4">
	<path fill-rule="evenodd" clip-rule="evenodd" d="M68.789,369.396h422.492h0.504c9.642,0,17.523-7.765,17.523-17.49V72.659v-0.52
		c0-9.727-7.881-17.475-17.523-17.475h-71.356l-35.133,35.134h88.847h0.001v244.567H86.314V89.797h149.057l35.133-35.134H69.309
		h-0.52c-9.744,0-17.508,7.748-17.508,17.475v279.247v0.52C51.282,361.631,59.045,369.396,68.789,369.396L68.789,369.396z"/>
</g>
<g id="图层_3">
	<path fill-rule="evenodd" clip-rule="evenodd" d="M542.948,384.907H17.508C7.864,384.907,0,392.79,0,402.415
		c0,9.794,7.865,17.675,17.508,17.675h525.44c9.76,0,17.642-7.881,17.642-17.675C560.591,392.79,552.708,384.907,542.948,384.907
		L542.948,384.907z"/>
</g>
<g id="图层_2">
	<path fill-rule="evenodd" clip-rule="evenodd" d="M369.766,5.422L142.531,231.42l-12.788,36.234l37.995-10.659l226.25-226.249
		c3.674-3.215,5.996-7.936,5.996-13.202C399.984,7.853,392.131,0,382.441,0c-4.579,0-8.746,1.756-11.87,4.629l-0.004-0.004
		l-0.174,0.172C370.179,5.001,369.969,5.21,369.766,5.422L369.766,5.422z"/>
</g>
</svg>
