<?xml version="1.0" encoding="utf-8"?>
<!-- Generator: Adobe Illustrator 19.0.0, SVG Export Plug-In . SVG Version: 6.00 Build 0)  -->
<svg version="1.1" id="图层_1" xmlns="http://www.w3.org/2000/svg" xmlns:xlink="http://www.w3.org/1999/xlink" x="0px" y="0px"
	 viewBox="0 0 818.752 818.8" enable-background="new 0 0 818.752 818.8" xml:space="preserve">
<g id="图层_7">
</g>
<g id="图层_6">
</g>
<g id="图层_5">
</g>
<g id="图层_4">
</g>
<g id="图层_3">
</g>
<g id="图层_2">
	<g>
		<path fill-rule="evenodd" clip-rule="evenodd" d="M408.042,0c-127.026,0-230,102.974-230,230s102.975,230,230,230
			s230-102.975,230-230S535.068,0,408.042,0z M408.042,424.16c-107.232,0-194.16-86.928-194.16-194.16s86.928-194.16,194.16-194.16
			s194.16,86.928,194.16,194.16S515.274,424.16,408.042,424.16z"/>
		<path fill="none" d="M409.376,460.493c-189.568,0-346.279,140.662-371.462,323.307h742.924
			C755.655,601.156,598.944,460.493,409.376,460.493z"/>
		<path d="M816.145,783.8c-25.417-202.033-197.842-358.307-406.769-358.307S28.023,581.767,2.606,783.8
			c-1.195,9.499-2.064,19.099-2.597,28.789c-0.185,3.37,2.488,6.211,5.863,6.211h28.876h749.255h28.876
			c3.375,0,6.049-2.841,5.863-6.211C818.209,802.899,817.34,793.299,816.145,783.8z M44.716,783.8c-3.606,0-6.361-3.224-5.803-6.786
			c28.082-179.331,183.25-316.52,370.463-316.52s342.381,137.19,370.463,316.52c0.558,3.563-2.197,6.786-5.803,6.786H44.716z"/>
	</g>
</g>
</svg>
