<?xml version="1.0" encoding="utf-8"?>
<!-- Generator: Adobe Illustrator 19.0.0, SVG Export Plug-In . SVG Version: 6.00 Build 0)  -->
<svg version="1.1" id="图层_1" xmlns="http://www.w3.org/2000/svg" xmlns:xlink="http://www.w3.org/1999/xlink" x="0px" y="0px"
	 viewBox="0 0 782.961 841.89" enable-background="new 0 0 782.961 841.89" xml:space="preserve">
<path fill-rule="evenodd" clip-rule="evenodd" fill="#272536" d="M754.015,350.189c-3.961-20.929-16.608-34.342-31.957-34.004
	h-3.241c-52.84,0-95.867-42.713-95.867-95.192c0-17.284,8.281-36.255,8.326-36.39c8.191-18.25,1.89-40.643-14.583-52.075l-0.9-0.63
	l-92.221-50.858l-0.946-0.405c-5.491-2.363-11.476-3.555-17.822-3.555c-13.143,0-26.014,5.198-34.431,13.884
	c-11.296,11.546-46.763,41.475-75.388,41.475c-28.94,0-64.633-30.538-75.93-42.285c-8.462-8.867-21.469-14.155-34.701-14.155
	c-6.256,0-12.107,1.148-17.509,3.421l-0.99,0.428L170.391,131.9l-0.946,0.652c-16.518,11.41-22.819,33.779-14.672,52.007
	c0.09,0.18,8.371,19.151,8.371,36.434c0,52.48-43.027,95.193-95.913,95.193h-3.196c-15.393-0.36-27.995,13.074-32.001,34.003
	c-0.314,1.665-7.696,40.868-7.696,71.788c0,30.876,7.382,70.078,7.696,71.744c3.961,20.658,16.293,34.026,31.416,34.026h3.781
	c52.885,0,95.914,42.668,95.914,95.148c0,17.283-8.281,36.276-8.372,36.411c-8.147,18.229-1.89,40.643,14.582,52.074l0.9,0.631
	l90.468,50.229l0.944,0.361c5.446,2.431,11.432,3.6,17.734,3.6c13.278,0,26.241-5.401,34.657-14.493
	c10.577-11.431,47.484-44.107,77.055-44.107c29.75,0,66.117,32.496,77.595,45.008c8.416,9.182,21.469,14.718,34.881,14.718
	c6.167,0,12.062-1.171,17.42-3.465l0.99-0.405l93.752-51.444l0.9-0.631c16.519-11.431,22.819-33.846,14.673-52.029
	c-0.091-0.18-8.373-19.174-8.373-36.456c0-52.48,43.028-95.148,95.869-95.148h3.195c15.392,0.27,28.039-13.098,32.001-34.026
	c0.316-1.667,7.743-40.869,7.743-71.744C761.756,391.056,754.33,351.853,754.015,350.189z M720.893,486.666
	C645.278,490.558,585,552.829,585,628.814c0,25.435,9.961,49.76,12.139,54.811l-90.162,49.482h-0.139
	c-1.297,0-2.502-0.463-2.966-0.787c-1.621-1.76-14.64-15.661-33.452-29.514c-28.077-20.664-54.764-31.182-79.367-31.182
	c-24.37,0-50.873,10.286-78.764,30.58c-18.718,13.621-31.691,27.289-33.313,29.004c-0.417,0.278-1.621,0.741-2.919,0.741h-0.185
	l-86.964-48.278c2.131-4.911,12.184-29.374,12.184-54.856c0-75.985-60.323-138.255-135.891-142.148
	c-1.112-6.022-6.996-39.567-6.996-64.68c0-25.205,5.885-58.75,6.996-64.725c75.568-3.892,135.891-66.163,135.891-142.17
	c0-25.367-9.915-49.691-12.138-54.764l91.877-50.108h0.324c1.529,0,2.965,0.556,3.428,0.881
	c1.483,1.553,14.409,14.734,32.988,27.892c27.521,19.46,53.56,29.328,77.468,29.328c23.629,0,49.482-9.684,76.818-28.772
	c18.487-12.881,31.32-25.831,32.803-27.359c0.511-0.301,1.899-0.857,3.429-0.857h0.371l88.679,48.949
	c-2.13,4.981-12.138,29.375-12.138,54.812c0,76.007,60.278,138.277,135.892,142.169c1.066,6,6.996,39.521,6.996,64.725
	C727.889,447.144,721.959,480.689,720.893,486.666z"/>
<path fill-rule="evenodd" clip-rule="evenodd" fill="#272536" d="M407.98,297.951c-67.928,0-122.994,55.066-122.994,122.994
	s55.066,122.994,122.994,122.994s122.994-55.066,122.994-122.994S475.907,297.951,407.98,297.951z M407.98,508.939
	c-48.598,0-87.994-39.396-87.994-87.994s39.396-87.994,87.994-87.994s87.994,39.396,87.994,87.994S456.577,508.939,407.98,508.939z"
	/>
<rect x="393.048" y="132.438" fill-rule="evenodd" clip-rule="evenodd" fill="#272536" width="15.406" height="35"/>
<rect x="406.813" y="297.951" fill-rule="evenodd" clip-rule="evenodd" fill="#272536" width="4.91" height="35"/>
</svg>
