<?xml version="1.0" encoding="utf-8"?>
<!-- Generator: Adobe Illustrator 19.0.0, SVG Export Plug-In . SVG Version: 6.00 Build 0)  -->
<svg version="1.1" id="图层_1" xmlns="http://www.w3.org/2000/svg" xmlns:xlink="http://www.w3.org/1999/xlink" x="0px" y="0px"
	 viewBox="0 0 656.581 841.89" enable-background="new 0 0 656.581 841.89" xml:space="preserve" fill='#28aa8e'>
<path id="XMLID_32_" fill-rule="evenodd" clip-rule="evenodd" fill="#28aa8e" d="M599.186,272.94c0-9.665-7.835-17.5-17.5-17.5
	s-17.5,7.835-17.5,17.5c0,0.086,0.012,0.169,0.013,0.255h-0.013V734.65c0,18.778-15.222,34-34,34H69c-18.778,0-34-15.222-34-34
	V142.196c0-18.778,15.222-34,34-34h380.186c9.665,0,17.5-7.835,17.5-17.5s-7.835-17.5-17.5-17.5H64c-35.346,0-64,28.654-64,64
	V739.65c0,35.346,28.654,64,64,64h471.186c35.346,0,64-28.654,64-64V273.196h-0.013C599.174,273.11,599.186,273.027,599.186,272.94z
	"/>
<polygon id="XMLID_33_" fill-rule="evenodd" clip-rule="evenodd" fill="#28aa8e" points="126.793,288.757 296.793,288.757
	296.793,323.757 126.793,323.757 126.793,288.757 "/>
<polygon id="XMLID_31_" fill-rule="evenodd" clip-rule="evenodd" fill="#28aa8e" points="126.793,425.432 472.393,425.432
	472.393,460.532 126.793,460.532 126.793,425.432 "/>
<polygon id="XMLID_8_" fill-rule="evenodd" clip-rule="evenodd" fill="#28aa8e" points="126.793,556.757 472.393,556.757
	472.393,591.857 126.793,591.857 126.793,556.757 "/>
<circle id="XMLID_1_" fill-rule="evenodd" clip-rule="evenodd" fill="#28aa8e" cx="126.793" cy="306.257" r="17.5"/>
<circle id="XMLID_34_" fill-rule="evenodd" clip-rule="evenodd" fill="#28aa8e" cx="296.793" cy="306.257" r="17.5"/>
<circle id="XMLID_35_" fill-rule="evenodd" clip-rule="evenodd" fill="#28aa8e" cx="126.793" cy="442.982" r="17.5"/>
<circle id="XMLID_36_" fill-rule="evenodd" clip-rule="evenodd" fill="#28aa8e" cx="472.393" cy="442.982" r="17.5"/>
<circle id="XMLID_37_" fill-rule="evenodd" clip-rule="evenodd" fill="#28aa8e" cx="472.393" cy="574.307" r="17.5"/>
<circle id="XMLID_38_" fill-rule="evenodd" clip-rule="evenodd" fill="#28aa8e" cx="126.793" cy="574.307" r="17.5"/>
<path fill-rule="evenodd" clip-rule="evenodd" d="M648.836,65.819l-21.299-21.945c-10.327-10.327-27.431-10.327-38.081,0
	l-141.027,141.35c-0.646,0.645-1.291,0.968-1.614,1.936c-1.185,1.723-1.185,1.723-2.259,3.227l-46.794,93.911
	c-1.613,3.227-0.645,6.454,1.614,8.713c2.259,2.259,5.809,3.227,8.713,1.614l94.879-46.149c0.646-0.323,1.432-0.835,1.936-1.613
	c0.278-0.419,0.323-0.646,0.646-1.291c0.645-0.323,1.291-1.291,1.936-1.614l141.35-140.059
	C659.163,93.572,659.163,76.146,648.836,65.819z M440.736,258.488c-5.114,2.965-7.521,0-5.114-5.04
	c2.106-5.336,22.863-47.138,22.863-47.138l29.782,29.35C488.267,235.66,445.85,255.82,440.736,258.488z M510.379,209.89L481,181.287
	l84.37-81.897L595,128.237L510.379,209.89z M625.19,94.585l-13.056,13.178l-26.111-26.81l13.055-13.177
	c3.098-3.181,8.188-3.181,11.064,0l15.047,15.449C628.288,86.406,628.288,91.631,625.19,94.585z"/>
</svg>
