<?xml version="1.0" encoding="utf-8"?>
<!-- Generator: Adobe Illustrator 19.0.0, SVG Export Plug-In . SVG Version: 6.00 Build 0)  -->
<svg version="1.1" id="图层_1" xmlns="http://www.w3.org/2000/svg" xmlns:xlink="http://www.w3.org/1999/xlink" x="0px" y="0px"
	 viewBox="0 0 638.142 685.138" enable-background="new 0 0 638.142 685.138" xml:space="preserve" fill="#28aa8e">
<g id="图层_7">
	<path fill-rule="evenodd" clip-rule="evenodd" d="M641.024,647.787H0c0,0,0,22.528,13.517,31.54
		c9.831,6.554,23.347,5.734,40.96,5.734h532.48c18.842,0,33.178,1.229,43.827-6.144
		C643.072,670.315,641.024,647.787,641.024,647.787L641.024,647.787z"/>
</g>
<g id="图层_6">
	<path fill-rule="evenodd" clip-rule="evenodd" d="M632.817,458.342c-4.096-9.011-9.83-16.793-17.613-22.528
		c-12.288-9.42-28.262-14.336-47.513-14.336h-91.726c-4.519,0-8.776-2.124-11.494-5.734l0,0c-3.521-3.619-6.144-6.554-9.011-9.421
		c-2.457-2.457-4.915-4.915-6.144-6.553c-4.505-6.144-7.782-11.879-10.24-18.023c-3.277-7.782-1.229-19.251,4.915-33.587
		c5.735-13.107,13.927-25.395,22.528-38.093c10.65-15.974,22.938-33.997,31.54-56.115c4.096-11.059,6.553-21.709,8.601-32.358
		l0.41-2.048c1.229-5.735,4.505-24.986,1.638-44.647c-0.409-2.457-0.409-4.915-0.819-7.373c-0.41-5.324-0.819-11.468-2.867-18.022
		c-8.602-33.997-23.347-62.259-46.695-88.064c-19.66-21.709-45.056-38.502-75.776-50.381C363.71,4.096,341.591,0,317.835,0
		c-25.396,0-49.972,4.506-70.042,12.288c-28.262,11.059-52.019,27.034-71.27,46.694c-20.071,20.89-34.816,45.876-43.828,74.957
		c-4.096,13.107-13.107,46.695-6.963,80.691c2.048,11.469,4.096,21.709,7.373,32.359c10.24,31.949,28.262,56.525,44.237,77.824
		c7.373,9.83,14.336,19.251,20.48,29.081c3.686,6.144,6.144,11.879,7.373,17.204c0.819,4.915,0.819,9.42-1.229,13.516
		c-3.687,8.602-11.469,17.613-20.89,25.396l-0.409,0.409l-0.41,0.41l-0.111,0.086c-9.103,7.11-20.321,10.973-31.872,10.973H68.388
		c-8.192,0-24.576,2.458-42.598,18.022c-6.963,6.144-19.661,19.252-23.757,36.045c-1.229,5.325-0.819,12.407-0.819,54.198
		c0,20.484,0,39.601,0,40.42v30.72h636.928v-32.359v-82.739C638.142,475.955,636.094,466.534,632.817,458.342z M605.783,569.344
		H32.753c0-0.41-2.048-77.005,0-86.016c3.277-12.288,21.709-29.491,34.816-29.491c10.813,0,59.543,0.278,95.587,0.376
		c13.118,0.035,25.668-5.208,34.956-14.471c1.614-1.61,3.073-2.993,4.215-3.928c12.288-9.83,24.167-22.937,30.72-38.092
		c9.831-22.528,1.639-44.647-8.192-60.621c-20.48-32.768-48.742-59.392-61.44-99.533c-2.867-9.011-4.505-18.432-6.144-28.262
		c-4.096-22.528,0.41-48.333,6.144-65.536c15.565-49.562,49.152-82.74,96.256-101.581c16.384-6.554,37.274-9.831,58.164-9.831
		c18.841,0,37.683,2.868,53.248,8.602c25.395,9.83,46.694,23.347,63.488,41.779c18.432,20.48,31.539,43.008,39.321,74.547
		c1.639,7.373,1.639,14.336,2.867,22.528c1.639,10.65,0.82,24.167-1.228,33.588c-2.048,10.24-3.687,20.07-7.373,29.081
		c-13.927,35.226-38.503,58.573-53.658,92.57c-7.373,16.384-13.517,38.093-5.734,58.573c3.686,9.42,8.601,17.612,14.336,25.395
		c4.915,6.553,11.469,11.878,16.384,18.022c0.029,0.033,0.058,0.066,0.087,0.1c9.299,10.796,22.774,17.103,37.022,17.103l91.096,0
		c21.038,0,38.092,17.054,38.092,38.092V569.344z"/>
</g>
<g id="图层_5">
</g>
<g id="图层_4">
</g>
<g id="图层_3">
</g>
<g id="图层_2">
</g>
</svg>
