<?xml version="1.0" encoding="utf-8"?>
<!-- Generator: Adobe Illustrator 19.0.0, SVG Export Plug-In . SVG Version: 6.00 Build 0)  -->
<svg version="1.1" id="图层_1" xmlns="http://www.w3.org/2000/svg" xmlns:xlink="http://www.w3.org/1999/xlink" x="0px" y="0px"
	 viewBox="0 0 401.541 393.109" enable-background="new 0 0 401.541 393.109" xml:space="preserve" fill='#28aa8e'>
<g id="图层_2">
	<g>
		<path fill-rule="evenodd" clip-rule="evenodd" d="M0.569,198.848c1.31-3.931,4.259-6.879,7.862-7.862l241.762-65.518
			c5.569-1.311,11.138,0.328,15.069,4.914c4.259,4.586,5.569,11.466,3.604,18.018c-1.638,5.896-5.897,10.155-11.138,11.465
			L48.725,216.21l95.656,108.76c20.311,22.931,47.174,35.708,76.002,35.708c60.604,0,113.018-77.639,113.018-77.639
			c11.138-18.672,42.587,0.983,20.966,22.604c0,0-67.811,87.467-133.984,87.467c-36.69,0-71.088-16.052-96.639-45.208L3.19,210.969
			C0.242,207.692-0.741,203.107,0.569,198.848L0.569,198.848z"/>
		<path fill-rule="evenodd" clip-rule="evenodd" d="M404.162,194.589c-1.31,3.931-4.259,6.879-7.862,7.862l-241.762,65.19
			c-5.569,1.311-11.138-0.328-15.069-4.913c-4.259-4.587-5.569-11.466-3.604-18.018c1.638-5.896,5.897-10.155,11.138-11.465
			l209.003-56.346l-95.656-108.76c-20.311-22.931-47.173-35.708-76.001-35.708c-60.604,0-113.019,77.64-113.019,77.64
			c-11.138,18.672-42.587-0.983-20.966-22.604c0,0,67.811-87.467,133.985-87.467c36.69,0,71.087,16.052,96.639,45.208
			l120.553,136.933C404.489,185.416,405.472,190.003,404.162,194.589L404.162,194.589z"/>
	</g>
</g>
</svg>
