<?xml version="1.0" encoding="utf-8"?>
<!-- Generator: Adobe Illustrator 19.0.0, SVG Export Plug-In . SVG Version: 6.00 Build 0)  -->
<svg version="1.1" id="图层_1" xmlns="http://www.w3.org/2000/svg" xmlns:xlink="http://www.w3.org/1999/xlink" x="0px" y="0px"
	 viewBox="0 0 589.499 569.665" enable-background="new 0 0 589.499 569.665" xml:space="preserve">
<g id="图层_5">
	<path fill-rule="evenodd" clip-rule="evenodd" d="M502.807,256.72c-28.569,0-53.967-14.161-69.759-35.969
		c-15.859,20.725-40.862,34.124-68.946,34.124c-28.39,0-53.629-13.839-69.455-35.173c-15.837,21.069-40.987,34.711-69.252,34.711
		c-28.344,0-53.55-13.754-69.376-34.982c-15.836,21.154-41.02,34.863-69.33,34.863C37.273,254.294,0,218.94,0,172.061
		c0-0.881,0.068-1.766,0.203-2.635L23.32,16.96C24.618,8.5,31.899,0,40.455,0h508.587c8.557,0,15.837,8.499,17.135,16.96
		l23.118,151.319c0.135,0.869,0.203,2.32,0.203,3.2C589.498,218.962,551.425,256.72,502.807,256.72L502.807,256.72z
		 M450.793,168.347c0,29.106,23.818,53.697,52.015,53.697c29.225,0,51.361-22.965,52.003-50.852L534.166,35.015H55.333
		L34.687,171.204c0.644,26.922,22.316,47.37,52.003,47.37c28.683,0,52.015-22.996,52.015-51.905c0-9.578,7.766-17.077,17.338-17.077
		c9.573,0,17.339,7.891,17.339,17.468c0,28.976,23.332,52.61,52.015,52.61c28.683,0,52.015-23.435,52.015-52.281
		c0-9.578,7.766-17.322,17.338-17.322c9.572,0,17.338,7.769,17.338,17.346c0,29.1,23.333,52.781,52.015,52.781
		c28.682,0,52.015-23.256,52.015-51.848c0-9.578,7.766-17.337,17.338-17.337C443.028,151.009,450.793,158.77,450.793,168.347
		L450.793,168.347z"/>
</g>
<g id="图层_4">
	<path fill-rule="evenodd" clip-rule="evenodd" d="M283.19,569.665H106.365c-31.527,0-59.674-35.137-59.674-61.467V238.383
		c0-9.578,7.599-17.338,17.17-17.338s17.171,7.761,17.171,17.338v269.815c0,12.958,18.21,26.452,25.332,26.452H283.19
		c9.572,0,17.339,7.929,17.339,17.507C300.529,561.735,292.762,569.665,283.19,569.665L283.19,569.665z"/>
</g>
<g id="图层_3">
	<path fill-rule="evenodd" clip-rule="evenodd" d="M456.931,478.005c-55.016,0-99.776-42.984-99.776-95.815
		c0-52.827,44.759-95.81,99.776-95.81c55.016,0,99.787,42.984,99.787,95.81C556.717,435.022,511.947,478.005,456.931,478.005
		L456.931,478.005z M456.931,309.987c-42.003,0-76.168,32.389-76.168,72.203c0,39.819,34.165,72.209,76.168,72.209
		c42.003,0,76.18-32.39,76.18-72.209C533.111,342.376,498.934,309.987,456.931,309.987L456.931,309.987z"/>
</g>
<g id="图层_2">
	<path fill-rule="evenodd" clip-rule="evenodd" d="M580.865,569.665c-5.198,0-9.97-3.47-11.388-8.737
		c-13.152-48.827-59.431-82.922-112.546-82.922c-53.08,0-99.348,34.084-112.523,82.882c-1.718,6.299-8.288,9.994-14.478,8.317
		c-6.294-1.7-10.017-8.178-8.322-14.472c15.953-59.074,71.604-100.334,135.323-100.334c63.765,0,119.416,41.283,135.346,100.386
		c1.695,6.294-2.04,12.772-8.334,14.466C582.917,569.533,581.892,569.66,580.865,569.665L580.865,569.665z"/>
</g>
</svg>
