<?xml version="1.0" encoding="utf-8"?>
<!-- Generator: Adobe Illustrator 19.0.0, SVG Export Plug-In . SVG Version: 6.00 Build 0)  -->
<svg version="1.1" id="图层_1" xmlns="http://www.w3.org/2000/svg" xmlns:xlink="http://www.w3.org/1999/xlink" x="0px" y="0px"
	 viewBox="0 0 602.086 736.872" enable-background="new 0 0 602.086 736.872" xml:space="preserve">
<path fill-rule="evenodd" clip-rule="evenodd" fill="#272536" d="M602.037,189.613c-1.11-50.066-21.131-96.967-56.658-132.495
	C508.903,20.641,460.431,0.512,408.862,0.411L400.837,0H70.389C31.576,0,0,31.577,0,70.389v596.094
	c0,38.813,31.577,70.389,70.389,70.389h461.308c38.812,0,70.389-31.576,70.389-70.389v-476.87H602.037z M563.936,173.333H441.879
	c-7.507,0-13.613-6-13.613-13.375L428.265,44C498.611,50.702,555.048,104.823,563.936,173.333z M568.185,661.622
	c0,22.194-18.056,40.25-40.251,40.25H74.151c-22.195,0-40.251-18.056-40.251-40.25V75.25C33.901,53.056,51.957,35,74.151,35h319.286
	v126.835c0,23.978,19.509,43.486,43.486,43.486h131.262V661.622z"/>
<line fill="none" x1="229" y1="0" x2="229" y2="50"/>
<line fill="none" x1="389.28" y1="113" x2="439.28" y2="113"/>
<path fill-rule="evenodd" clip-rule="evenodd" fill="#272536" d="M461.042,261.926h-320c-9.665,0-17.5,7.835-17.5,17.5
	c0,9.665,7.835,17.5,17.5,17.5h320c9.665,0,17.5-7.835,17.5-17.5C478.542,269.761,470.707,261.926,461.042,261.926z"/>
<path fill-rule="evenodd" clip-rule="evenodd" fill="#272536" d="M461.042,414.603h-320c-9.665,0-17.5,7.835-17.5,17.5
	c0,9.665,7.835,17.5,17.5,17.5h320c9.665,0,17.5-7.835,17.5-17.5C478.542,422.438,470.707,414.603,461.042,414.603z"/>
<path fill-rule="evenodd" clip-rule="evenodd" fill="#272536" d="M461.042,567.28h-320c-9.665,0-17.5,7.835-17.5,17.5
	c0,9.665,7.835,17.5,17.5,17.5h320c9.665,0,17.5-7.835,17.5-17.5C478.542,575.115,470.707,567.28,461.042,567.28z"/>
</svg>
