<?xml version="1.0" encoding="utf-8"?>
<!-- Generator: Adobe Illustrator 19.0.0, SVG Export Plug-In . SVG Version: 6.00 Build 0)  -->
<svg version="1.1" id="图层_1" xmlns="http://www.w3.org/2000/svg" xmlns:xlink="http://www.w3.org/1999/xlink" x="0px" y="0px"
	 viewBox="0 0 715.443 648.984" enable-background="new 0 0 715.443 648.984" xml:space="preserve">
<g id="图层_2">
	<g>
		<path fill-rule="evenodd" clip-rule="evenodd" d="M710.033,329.403L357.731,0L5.428,328.435
			c-6.892,6.426-7.277,17.231-0.835,24.116c6.435,6.879,17.253,7.268,24.14,0.828l328.971-306.67l328.987,307.604
			c3.3,3.084,7.49,4.608,11.672,4.608c4.552,0,9.107-1.808,12.467-5.406C717.278,346.635,716.923,335.839,710.033,329.403
			L710.033,329.403 M710.033,329.403 M602.527,336.169c-9.43,0-17.08,7.644-17.08,17.062v261.63H448.809V432.858H266.627v182.003
			H129.993v-261.63c0-9.418-7.641-17.062-17.078-17.062c-9.442,0-17.083,7.644-17.083,17.062v295.753h204.956V466.982h113.864
			v182.002h204.951V353.231C619.604,343.813,611.953,336.169,602.527,336.169L602.527,336.169 M602.527,336.169 M482.971,91.604
			h102.476v90.999c0,9.432,7.651,17.066,17.08,17.066c9.426,0,17.077-7.634,17.077-17.066V57.48H482.971
			c-9.432,0-17.083,7.63-17.083,17.062C465.887,83.971,473.539,91.604,482.971,91.604L482.971,91.604 M482.971,91.604"/>
	</g>
</g>
</svg>
